<svg width="245" height="20" viewBox="0 0 245 20" fill="none" xmlns="http://www.w3.org/2000/svg">
<path opacity="0.85" d="M242.153 19.6899C245.653 18.6508 245.62 13.8108 242.077 12.9278C227.56 9.30887 211.239 6.36408 193.667 4.20308C171.104 1.42821 146.922 -1.64233e-06 122.5 0C98.0782 1.64233e-06 73.8955 1.42821 51.3327 4.20309C33.7614 6.3641 17.4404 9.30888 2.92279 12.9278C-0.619606 13.8108 -0.652983 18.6508 2.84681 19.6899V19.6899C3.52835 19.8923 4.25234 19.8919 4.93484 19.6928C20.2906 15.2127 38.4111 11.6512 58.3094 9.204C78.6603 6.70115 100.472 5.41295 122.5 5.41294C144.528 5.41294 166.34 6.70114 186.691 9.20399C206.589 11.6512 224.709 15.2127 240.065 19.6928C240.748 19.8919 241.472 19.8923 242.153 19.6899V19.6899Z" fill="url(#paint0_linear_2_470)"/>
<defs>
<linearGradient id="paint0_linear_2_470" x1="-14.2132" y1="6.72354" x2="14.5203" y2="89.4891" gradientUnits="userSpaceOnUse">
<stop stop-color="#FF9709"/>
<stop offset="0.37" stop-color="#9022FF"/>
<stop offset="0.65" stop-color="#FE950C"/>
<stop offset="0.945" stop-color="#C65466"/>
</linearGradient>
</defs>
</svg>
