<svg width="32" height="33" viewBox="0 0 32 33" fill="none" xmlns="http://www.w3.org/2000/svg">
<rect x="0.5" y="1.2793" width="31" height="31" rx="15.5" fill="white" fill-opacity="0.15"/>
<rect x="0.5" y="1.2793" width="31" height="31" rx="15.5" stroke="#EDE9DF"/>
<path d="M16 9.7793C19.8387 9.7793 23 12.9406 23 16.7793C23 20.6462 19.8387 23.7793 16 23.7793C12.1331 23.7793 9 20.6462 9 16.7793C9 12.9406 12.1331 9.7793 16 9.7793ZM19.2177 14.5495C19.246 14.4648 19.246 14.3801 19.2177 14.2672C19.2177 14.2107 19.1613 14.1261 19.1331 14.0978C19.0484 14.0132 18.9073 14.0132 18.8508 14.0132C18.5968 14.0132 18.1734 14.1543 16.2258 14.9728C15.5484 15.2551 14.1935 15.8196 12.1613 16.7228C11.8226 16.864 11.6532 16.9769 11.625 17.118C11.5968 17.3438 11.9637 17.4285 12.3871 17.5696C12.754 17.6825 13.2339 17.8237 13.4879 17.8237C13.7137 17.8237 13.9677 17.739 14.25 17.5414C16.1411 16.243 17.129 15.5938 17.1855 15.5938C17.2419 15.5938 17.2984 15.5656 17.3266 15.5938C17.3831 15.6503 17.3831 15.7067 17.3548 15.7349C17.3266 15.8761 15.5484 17.5132 15.4355 17.6261C15.0403 18.0212 14.5887 18.2753 15.2944 18.7269C15.8871 19.122 16.2258 19.3761 16.8468 19.7712C17.2419 20.0253 17.5524 20.3357 17.9476 20.3075C18.1452 20.2793 18.3427 20.1099 18.4274 19.5737C18.6815 18.3599 19.1331 15.6503 19.2177 14.5495Z" fill="#EDE9DF"/>
</svg>
