<svg width="32" height="33" viewBox="0 0 32 33" fill="none" xmlns="http://www.w3.org/2000/svg">
<rect x="0.5" y="1.2793" width="31" height="31" rx="15.5" fill="white" fill-opacity="0.15"/>
<rect x="0.5" y="1.2793" width="31" height="31" rx="15.5" stroke="#EDE9DF"/>
<path d="M18.8732 10.7793C17.3538 10.7793 16.122 12.0105 16.122 13.5293C16.122 13.7588 16.1501 13.9817 16.2031 14.1948C14.55 14.1948 11.95 13.8349 10 11.3904C10 17.5015 12.6 19.233 13.9 19.3349C12.925 20.2515 11.4058 20.93 10 21.0577C10.6048 21.5803 12.4992 21.7565 13.3708 21.7793C17.8781 21.7793 21.5415 18.168 21.623 13.6821C22.4875 13.147 22.898 11.6963 23 11.3904C22.5789 11.8114 21.7 12.0015 20.9997 11.7843C20.4951 11.1707 19.7299 10.7793 18.8732 10.7793Z" fill="#EDE9DF"/>
</svg>
